<svg width="33" height="36" viewBox="0 0 33 36" fill="none" xmlns="http://www.w3.org/2000/svg">
<g id="apps">
<mask id="path-1-outside-1_85_1590" maskUnits="userSpaceOnUse" x="-3" y="0" width="36" height="36" fill="black">
<rect fill="white" x="-3" width="36" height="36"/>
<path fill-rule="evenodd" clip-rule="evenodd" d="M24 2H25H30H31V3V8V9H30H25H24V8V3V2ZM26 4V7H29V4H26ZM11.5 2H12.5H17.5H18.5V3V8V9H17.5H12.5H11.5V8V3V2ZM13.5 4V7H16.5V4H13.5ZM-1 2H0H5H6V3V8V9H5H0H-1V8V3V2ZM1 4V7H4V4H1ZM24 14.5H25H30H31V15.5V20.5V21.5H30H25H24V20.5V15.5V14.5ZM26 16.5V19.5H29V16.5H26ZM11.5 14.5H12.5H17.5H18.5V15.5V20.5V21.5H17.5H12.5H11.5V20.5V15.5V14.5ZM13.5 16.5V19.5H16.5V16.5H13.5ZM-1 14.5H0H5H6V15.5V20.5V21.5H5H0H-1V20.5V15.5V14.5ZM1 16.5V19.5H4V16.5H1ZM24 27H25H30H31V28V33V34H30H25H24V33V28V27ZM26 29V32H29V29H26ZM11.5 27H12.5H17.5H18.5V28V33V34H17.5H12.5H11.5V33V28V27ZM13.5 29V32H16.5V29H13.5ZM-1 27H0H5H6V28V33V34H5H0H-1V33V28V27ZM1 29V32H4V29H1Z"/>
</mask>
<path fill-rule="evenodd" clip-rule="evenodd" d="M24 2H25H30H31V3V8V9H30H25H24V8V3V2ZM26 4V7H29V4H26ZM11.5 2H12.5H17.5H18.5V3V8V9H17.5H12.5H11.5V8V3V2ZM13.5 4V7H16.5V4H13.5ZM-1 2H0H5H6V3V8V9H5H0H-1V8V3V2ZM1 4V7H4V4H1ZM24 14.5H25H30H31V15.5V20.5V21.5H30H25H24V20.5V15.5V14.5ZM26 16.5V19.5H29V16.5H26ZM11.5 14.5H12.5H17.5H18.5V15.5V20.5V21.5H17.5H12.5H11.5V20.5V15.5V14.5ZM13.5 16.5V19.5H16.5V16.5H13.5ZM-1 14.5H0H5H6V15.5V20.5V21.5H5H0H-1V20.5V15.5V14.5ZM1 16.5V19.5H4V16.5H1ZM24 27H25H30H31V28V33V34H30H25H24V33V28V27ZM26 29V32H29V29H26ZM11.5 27H12.5H17.5H18.5V28V33V34H17.5H12.5H11.5V33V28V27ZM13.5 29V32H16.5V29H13.5ZM-1 27H0H5H6V28V33V34H5H0H-1V33V28V27ZM1 29V32H4V29H1Z" fill="white"/>
<path d="M24 2V0H22V2H24ZM31 2H33V0H31V2ZM31 9V11H33V9H31ZM24 9H22V11H24V9ZM26 7H24V9H26V7ZM26 4V2H24V4H26ZM29 7V9H31V7H29ZM29 4H31V2H29V4ZM11.5 2V0H9.5V2H11.5ZM18.5 2H20.5V0H18.5V2ZM18.5 9V11H20.5V9H18.5ZM11.5 9H9.5V11H11.5V9ZM13.5 7H11.5V9H13.5V7ZM13.5 4V2H11.5V4H13.5ZM16.5 7V9H18.5V7H16.5ZM16.5 4H18.5V2H16.5V4ZM-1 2V0H-3V2H-1ZM6 2H8V0H6V2ZM6 9V11H8V9H6ZM-1 9H-3V11H-1V9ZM1 7H-1V9H1V7ZM1 4V2H-1V4H1ZM4 7V9H6V7H4ZM4 4H6V2H4V4ZM24 14.5V12.5H22V14.5H24ZM31 14.5H33V12.5H31V14.5ZM31 21.5V23.5H33V21.5H31ZM24 21.5H22V23.5H24V21.5ZM26 19.5H24V21.5H26V19.5ZM26 16.5V14.5H24V16.5H26ZM29 19.5V21.5H31V19.5H29ZM29 16.5H31V14.5H29V16.5ZM11.5 14.5V12.5H9.5V14.5H11.5ZM18.5 14.5H20.5V12.5H18.5V14.5ZM18.5 21.5V23.5H20.5V21.5H18.5ZM11.5 21.5H9.5V23.5H11.5V21.5ZM13.5 19.5H11.5V21.5H13.5V19.5ZM13.5 16.5V14.5H11.5V16.5H13.5ZM16.5 19.5V21.5H18.5V19.5H16.5ZM16.5 16.5H18.5V14.5H16.5V16.5ZM-1 14.5V12.5H-3V14.5H-1ZM6 14.5H8V12.5H6V14.5ZM6 21.5V23.5H8V21.5H6ZM-1 21.5H-3V23.5H-1V21.5ZM1 19.5H-1V21.5H1V19.5ZM1 16.5V14.5H-1V16.5H1ZM4 19.5V21.5H6V19.5H4ZM4 16.5H6V14.5H4V16.5ZM24 27V25H22V27H24ZM31 27H33V25H31V27ZM31 34V36H33V34H31ZM24 34H22V36H24V34ZM26 32H24V34H26V32ZM26 29V27H24V29H26ZM29 32V34H31V32H29ZM29 29H31V27H29V29ZM11.5 27V25H9.5V27H11.5ZM18.5 27H20.5V25H18.5V27ZM18.5 34V36H20.5V34H18.5ZM11.5 34H9.5V36H11.5V34ZM13.5 32H11.5V34H13.5V32ZM13.5 29V27H11.5V29H13.5ZM16.5 32V34H18.5V32H16.5ZM16.5 29H18.5V27H16.5V29ZM-1 27V25H-3V27H-1ZM6 27H8V25H6V27ZM6 34V36H8V34H6ZM-1 34H-3V36H-1V34ZM1 32H-1V34H1V32ZM1 29V27H-1V29H1ZM4 32V34H6V32H4ZM4 29H6V27H4V29ZM25 0H24V4H25V0ZM30 0H25V4H30V0ZM31 0H30V4H31V0ZM33 3V2H29V3H33ZM33 8V3H29V8H33ZM33 9V8H29V9H33ZM30 11H31V7H30V11ZM25 11H30V7H25V11ZM24 11H25V7H24V11ZM22 8V9H26V8H22ZM22 3V8H26V3H22ZM22 2V3H26V2H22ZM28 7V4H24V7H28ZM29 5H26V9H29V5ZM27 4V7H31V4H27ZM26 6H29V2H26V6ZM12.5 0H11.5V4H12.5V0ZM17.5 0H12.5V4H17.5V0ZM18.5 0H17.5V4H18.5V0ZM20.5 3V2H16.5V3H20.5ZM20.5 8V3H16.5V8H20.5ZM20.5 9V8H16.5V9H20.5ZM17.5 11H18.5V7H17.5V11ZM12.5 11H17.5V7H12.5V11ZM11.5 11H12.5V7H11.5V11ZM9.5 8V9H13.5V8H9.5ZM9.5 3V8H13.5V3H9.5ZM9.5 2V3H13.5V2H9.5ZM15.5 7V4H11.5V7H15.5ZM16.5 5H13.5V9H16.5V5ZM14.5 4V7H18.5V4H14.5ZM13.5 6H16.5V2H13.5V6ZM0 0H-1V4H0V0ZM5 0H0V4H5V0ZM6 0H5V4H6V0ZM8 3V2H4V3H8ZM8 8V3H4V8H8ZM8 9V8H4V9H8ZM5 11H6V7H5V11ZM0 11H5V7H0V11ZM-1 11H0V7H-1V11ZM-3 8V9H1V8H-3ZM-3 3V8H1V3H-3ZM-3 2V3H1V2H-3ZM3 7V4H-1V7H3ZM4 5H1V9H4V5ZM2 4V7H6V4H2ZM1 6H4V2H1V6ZM25 12.5H24V16.5H25V12.5ZM30 12.5H25V16.5H30V12.5ZM31 12.5H30V16.5H31V12.5ZM33 15.5V14.5H29V15.5H33ZM33 20.5V15.5H29V20.5H33ZM33 21.5V20.5H29V21.5H33ZM30 23.5H31V19.5H30V23.5ZM25 23.5H30V19.5H25V23.5ZM24 23.5H25V19.5H24V23.5ZM22 20.5V21.5H26V20.5H22ZM22 15.5V20.5H26V15.5H22ZM22 14.5V15.5H26V14.5H22ZM28 19.5V16.5H24V19.5H28ZM29 17.5H26V21.5H29V17.5ZM27 16.5V19.5H31V16.5H27ZM26 18.5H29V14.5H26V18.5ZM12.5 12.5H11.5V16.5H12.5V12.5ZM17.5 12.5H12.5V16.5H17.5V12.5ZM18.5 12.5H17.5V16.5H18.5V12.5ZM20.5 15.5V14.5H16.5V15.5H20.5ZM20.5 20.5V15.5H16.5V20.5H20.5ZM20.5 21.5V20.5H16.5V21.5H20.5ZM17.5 23.5H18.5V19.5H17.5V23.5ZM12.5 23.5H17.5V19.5H12.5V23.5ZM11.5 23.5H12.5V19.5H11.5V23.5ZM9.5 20.5V21.5H13.5V20.5H9.5ZM9.5 15.5V20.5H13.5V15.5H9.5ZM9.5 14.5V15.5H13.5V14.5H9.5ZM15.5 19.5V16.5H11.5V19.5H15.5ZM16.5 17.5H13.5V21.5H16.5V17.5ZM14.5 16.5V19.5H18.5V16.5H14.5ZM13.5 18.5H16.5V14.5H13.5V18.5ZM0 12.5H-1V16.5H0V12.5ZM5 12.5H0V16.5H5V12.5ZM6 12.5H5V16.5H6V12.5ZM8 15.5V14.5H4V15.5H8ZM8 20.5V15.5H4V20.5H8ZM8 21.5V20.5H4V21.5H8ZM5 23.5H6V19.5H5V23.5ZM0 23.5H5V19.5H0V23.5ZM-1 23.5H0V19.5H-1V23.5ZM-3 20.5V21.5H1V20.5H-3ZM-3 15.5V20.5H1V15.5H-3ZM-3 14.5V15.5H1V14.5H-3ZM3 19.5V16.5H-1V19.5H3ZM4 17.5H1V21.5H4V17.5ZM2 16.5V19.5H6V16.5H2ZM1 18.5H4V14.5H1V18.5ZM25 25H24V29H25V25ZM30 25H25V29H30V25ZM31 25H30V29H31V25ZM33 28V27H29V28H33ZM33 33V28H29V33H33ZM33 34V33H29V34H33ZM30 36H31V32H30V36ZM25 36H30V32H25V36ZM24 36H25V32H24V36ZM22 33V34H26V33H22ZM22 28V33H26V28H22ZM22 27V28H26V27H22ZM28 32V29H24V32H28ZM29 30H26V34H29V30ZM27 29V32H31V29H27ZM26 31H29V27H26V31ZM12.5 25H11.5V29H12.5V25ZM17.5 25H12.5V29H17.5V25ZM18.5 25H17.5V29H18.5V25ZM20.5 28V27H16.5V28H20.5ZM20.5 33V28H16.5V33H20.5ZM20.5 34V33H16.5V34H20.5ZM17.5 36H18.5V32H17.5V36ZM12.5 36H17.5V32H12.5V36ZM11.5 36H12.5V32H11.5V36ZM9.5 33V34H13.5V33H9.5ZM9.5 28V33H13.5V28H9.5ZM9.5 27V28H13.5V27H9.5ZM15.5 32V29H11.5V32H15.5ZM16.5 30H13.5V34H16.5V30ZM14.5 29V32H18.5V29H14.5ZM13.5 31H16.5V27H13.5V31ZM0 25H-1V29H0V25ZM5 25H0V29H5V25ZM6 25H5V29H6V25ZM8 28V27H4V28H8ZM8 33V28H4V33H8ZM8 34V33H4V34H8ZM5 36H6V32H5V36ZM0 36H5V32H0V36ZM-1 36H0V32H-1V36ZM-3 33V34H1V33H-3ZM-3 28V33H1V28H-3ZM-3 27V28H1V27H-3ZM3 32V29H-1V32H3ZM4 30H1V34H4V30ZM2 29V32H6V29H2ZM1 31H4V27H1V31Z" fill="white" mask="url(#path-1-outside-1_85_1590)"/>
</g>
<script xmlns=""/></svg>